<?xml version="1.0" standalone="no"?>
<!DOCTYPE svg PUBLIC "-//W3C//DTD SVG 20010904//EN"
 "http://www.w3.org/TR/2001/REC-SVG-20010904/DTD/svg10.dtd">
<svg version="1.0" xmlns="http://www.w3.org/2000/svg"
 width="400.000000pt" height="400.000000pt" viewBox="0 0 400.000000 400.000000"
 preserveAspectRatio="xMidYMid meet">
<metadata>
Created by potrace 1.15, written by Peter Selinger 2001-2017
</metadata>
<g transform="translate(0.000000,400.000000) scale(0.100000,-0.100000)"
fill="#000000" stroke="none">
<path d="M1727 3985 c-446 -68 -826 -257 -1142 -570 -311 -309 -510 -710 -570
-1154 -21 -152 -16 -456 9 -596 115 -642 516 -1179 1089 -1459 162 -79 253
-113 406 -151 181 -45 235 -50 491 -50 215 1 259 3 355 23 199 41 324 82 483
158 534 253 918 704 1081 1269 55 190 65 276 66 535 0 256 -5 310 -50 491 -38
153 -72 244 -151 406 -155 318 -375 570 -674 772 -229 156 -502 266 -785 317
-121 22 -487 28 -608 9z m553 -384 c205 -44 314 -82 471 -163 369 -190 664
-539 793 -937 105 -323 103 -693 -3 -1011 -85 -253 -202 -442 -396 -635 -248
-249 -536 -398 -876 -456 -168 -28 -441 -24 -598 10 -309 67 -587 217 -809
434 -207 203 -371 489 -436 758 -38 162 -41 186 -41 404 1 205 3 228 29 340
113 485 400 862 831 1091 152 81 364 150 538 174 84 12 429 5 497 -9z"/>
<path d="M2190 3021 c-30 -5 -81 -14 -113 -20 -48 -11 -57 -16 -51 -29 99
-231 93 -422 -18 -635 -50 -97 -182 -222 -288 -274 -112 -55 -223 -78 -347
-70 l-93 5 0 -51 c0 -29 7 -90 15 -137 76 -430 405 -764 833 -846 95 -18 289
-18 384 0 317 61 585 261 732 546 87 169 111 272 111 480 0 171 -14 248 -66
378 -154 386 -515 642 -929 657 -63 2 -140 0 -170 -4z"/>
</g>
</svg>
